<svg xmlns="http://www.w3.org/2000/svg" xmlns:xlink="http://www.w3.org/1999/xlink" width="500" zoomAndPan="magnify" viewBox="0 0 375 374.999991" height="500" preserveAspectRatio="xMidYMid meet" version="1.0"><defs><g/><clipPath id="86f8a9c65c"><path d="M 145 152 L 250 152 L 250 229 L 145 229 Z M 145 152 " clip-rule="nonzero"/></clipPath><clipPath id="802d8b1889"><path d="M 140.597656 163.589844 L 241.1875 139.207031 L 258.675781 211.371094 L 158.089844 235.75 Z M 140.597656 163.589844 " clip-rule="nonzero"/></clipPath><clipPath id="d8a510ffff"><path d="M 140.597656 163.589844 L 241.1875 139.207031 L 258.675781 211.371094 L 158.089844 235.75 Z M 140.597656 163.589844 " clip-rule="nonzero"/></clipPath><clipPath id="98da9a5b6a"><path d="M 77.71875 179.046875 L 96.46875 179.046875 L 96.46875 197.796875 L 77.71875 197.796875 Z M 77.71875 179.046875 " clip-rule="nonzero"/></clipPath></defs><g clip-path="url(#86f8a9c65c)"><g clip-path="url(#802d8b1889)"><g clip-path="url(#d8a510ffff)"><path fill="#0275d8" d="M 247.222656 173.332031 C 247.597656 174.753906 248.386719 175.605469 249.035156 176.085938 C 248.058594 177.40625 247.074219 178.722656 246.085938 180.035156 C 245.011719 179.226562 243.261719 177.507812 242.496094 174.613281 C 240.683594 177.042969 238.847656 179.453125 236.988281 181.847656 C 234.867188 184.582031 232.71875 187.292969 230.53125 189.980469 C 228.347656 192.667969 226.128906 195.332031 223.871094 197.964844 C 221.613281 200.597656 219.308594 203.195312 216.953125 205.753906 C 214.59375 208.308594 212.179688 210.824219 209.683594 213.265625 C 207.183594 215.710938 204.597656 218.089844 201.863281 220.335938 C 199.117188 222.574219 196.246094 224.710938 192.972656 226.46875 C 191.328125 227.335938 189.578125 228.113281 187.601562 228.59375 C 186.609375 228.824219 185.558594 228.976562 184.441406 228.960938 C 183.886719 228.957031 183.3125 228.898438 182.738281 228.792969 C 182.160156 228.679688 181.585938 228.511719 181.027344 228.285156 C 180.46875 228.050781 179.933594 227.761719 179.4375 227.421875 C 178.988281 227.074219 178.53125 226.753906 178.132812 226.335938 C 177.710938 225.953125 177.355469 225.496094 177 225.042969 C 176.84375 224.804688 176.6875 224.566406 176.535156 224.324219 C 176.453125 224.203125 176.386719 224.078125 176.324219 223.953125 L 176.132812 223.574219 C 175.644531 222.5625 175.316406 221.496094 175.152344 220.464844 L 175.082031 220.078125 L 175.039062 219.691406 C 175.015625 219.4375 174.984375 219.179688 174.964844 218.925781 C 174.949219 218.425781 174.914062 217.917969 174.9375 217.429688 C 174.980469 215.460938 175.285156 213.601562 175.703125 211.8125 C 176.125 210.023438 176.652344 208.300781 177.234375 206.617188 C 178.40625 203.246094 179.789062 200.019531 181.222656 196.847656 C 182.660156 193.671875 184.160156 190.554688 185.648438 187.453125 C 187.132812 184.347656 188.609375 181.261719 189.980469 178.15625 C 191.34375 175.058594 192.625 171.933594 193.550781 168.808594 C 194.007812 167.25 194.367188 165.6875 194.542969 164.1875 L 194.613281 163.355469 L 194.617188 163.085938 C 194.621094 162.910156 194.628906 162.726562 194.628906 162.550781 L 194.605469 162.035156 C 194.554688 161.363281 194.441406 160.734375 194.25 160.203125 C 194.046875 159.679688 193.78125 159.25 193.425781 158.886719 C 193.335938 158.796875 193.257812 158.699219 193.144531 158.625 L 192.988281 158.503906 C 192.9375 158.460938 192.894531 158.417969 192.824219 158.378906 C 192.691406 158.300781 192.566406 158.21875 192.4375 158.136719 L 192.03125 157.929688 C 191.480469 157.675781 190.886719 157.503906 190.25 157.402344 C 189.613281 157.300781 188.921875 157.304688 188.222656 157.355469 C 186.8125 157.460938 185.328125 157.859375 183.863281 158.390625 C 182.394531 158.9375 180.933594 159.628906 179.503906 160.40625 C 176.636719 161.972656 173.882812 163.871094 171.214844 165.90625 C 168.546875 167.945312 165.964844 170.132812 163.453125 172.40625 C 160.945312 174.683594 158.5 177.046875 156.117188 179.472656 C 154.921875 180.6875 153.746094 181.914062 152.585938 183.15625 C 152.007812 183.78125 151.433594 184.40625 150.863281 185.035156 C 150.296875 185.65625 149.722656 186.300781 149.1875 186.914062 L 145.480469 183.726562 C 146.074219 183.039062 146.648438 182.398438 147.238281 181.75 C 147.824219 181.101562 148.414062 180.457031 149.007812 179.820312 C 150.199219 178.546875 151.402344 177.285156 152.625 176.042969 C 155.066406 173.554688 157.578125 171.132812 160.171875 168.78125 C 162.761719 166.433594 165.4375 164.160156 168.242188 162.015625 C 171.050781 159.878906 173.980469 157.851562 177.160156 156.109375 C 178.753906 155.246094 180.414062 154.453125 182.171875 153.796875 C 183.9375 153.160156 185.804688 152.636719 187.835938 152.476562 C 188.851562 152.402344 189.894531 152.398438 190.960938 152.5625 C 192.027344 152.722656 193.101562 153.03125 194.109375 153.503906 C 194.359375 153.628906 194.613281 153.75 194.855469 153.882812 L 195.566406 154.328125 C 195.679688 154.394531 195.800781 154.496094 195.917969 154.585938 L 196.269531 154.863281 C 196.507812 155.039062 196.71875 155.257812 196.933594 155.476562 C 197.785156 156.34375 198.433594 157.414062 198.839844 158.5 C 199.234375 159.589844 199.410156 160.671875 199.488281 161.714844 L 199.519531 162.488281 C 199.523438 162.742188 199.511719 162.992188 199.507812 163.242188 L 199.496094 163.621094 L 199.46875 163.988281 L 199.40625 164.71875 C 199.183594 166.640625 198.753906 168.445312 198.242188 170.191406 C 197.210938 173.671875 195.859375 176.929688 194.457031 180.132812 C 193.042969 183.328125 191.550781 186.457031 190.0625 189.566406 C 188.570312 192.675781 187.085938 195.761719 185.679688 198.863281 C 184.277344 201.964844 182.949219 205.078125 181.859375 208.214844 C 181.316406 209.785156 180.835938 211.359375 180.46875 212.921875 C 180.101562 214.484375 179.859375 216.046875 179.828125 217.519531 C 179.808594 217.894531 179.84375 218.246094 179.847656 218.605469 C 179.859375 218.78125 179.882812 218.953125 179.898438 219.125 L 179.925781 219.382812 L 179.972656 219.628906 C 180.074219 220.300781 180.277344 220.894531 180.53125 221.429688 L 180.628906 221.628906 C 180.660156 221.695312 180.695312 221.761719 180.738281 221.820312 C 180.816406 221.9375 180.894531 222.058594 180.96875 222.183594 C 181.15625 222.402344 181.320312 222.636719 181.542969 222.828125 C 181.730469 223.042969 181.992188 223.207031 182.21875 223.394531 C 182.433594 223.539062 182.660156 223.660156 182.894531 223.761719 C 183.132812 223.855469 183.386719 223.933594 183.65625 223.988281 C 183.929688 224.03125 184.214844 224.066406 184.515625 224.070312 C 185.125 224.078125 185.789062 223.992188 186.472656 223.832031 C 187.847656 223.5 189.28125 222.890625 190.675781 222.148438 C 193.480469 220.648438 196.175781 218.667969 198.757812 216.554688 C 201.347656 214.429688 203.835938 212.140625 206.261719 209.769531 C 208.6875 207.398438 211.042969 204.941406 213.355469 202.4375 C 215.667969 199.929688 217.933594 197.371094 220.160156 194.777344 C 222.386719 192.183594 224.578125 189.554688 226.734375 186.894531 C 228.894531 184.238281 231.023438 181.554688 233.125 178.847656 C 234.964844 176.476562 236.78125 174.089844 238.578125 171.683594 C 235.59375 171.753906 233.472656 170.523438 232.398438 169.714844 C 233.351562 168.445312 234.300781 167.175781 235.242188 165.902344 C 235.890625 166.378906 236.929688 166.890625 238.390625 166.84375 C 239.84375 166.796875 241.738281 166.179688 244.019531 164.402344 L 247.859375 167.105469 C 246.878906 169.917969 246.847656 171.902344 247.222656 173.332031 Z M 247.222656 173.332031 " fill-opacity="1" fill-rule="nonzero"/></g></g></g><g clip-path="url(#98da9a5b6a)"><path fill="#0275d8" d="M 96.402344 185.847656 L 96.402344 190.976562 C 90.191406 192.792969 89.261719 196.015625 89.261719 197.773438 L 83.917969 197.773438 C 83.917969 196.304688 84.257812 193.648438 86.296875 191.082031 L 77.722656 191.082031 L 77.722656 185.738281 L 86.296875 185.738281 C 84.257812 183.175781 83.917969 180.515625 83.917969 179.046875 L 89.261719 179.046875 C 89.261719 180.804688 90.191406 184.03125 96.402344 185.847656 Z M 96.402344 185.847656 " fill-opacity="1" fill-rule="nonzero"/></g><g fill="#000000" fill-opacity="1"><g transform="translate(109.280066, 196.719097)"><g><path d="M 6.15625 0 L 16.046875 0 L 18.984375 -10.328125 L 21.9375 0 L 31.828125 0 L 37.71875 -17.9375 L 30.578125 -17.9375 L 26.859375 -5.28125 L 22.953125 -17.9375 L 15.015625 -17.9375 L 11.125 -5.28125 L 7.40625 -17.9375 L 0.25 -17.9375 Z M 6.15625 0 "/></g></g></g><g fill="#000000" fill-opacity="1"><g transform="translate(147.24482, 196.719097)"><g><path d="M 0.515625 0 L 6.65625 0 L 6.65625 -8.296875 C 7.859375 -9.453125 9.78125 -10.25 11.609375 -10.25 C 14.375 -10.25 15.328125 -9.125 15.328125 -6.484375 L 15.328125 0 L 21.46875 0 L 21.46875 -9 C 21.46875 -14.5625 17.546875 -15.625 14.09375 -15.625 C 10.859375 -15.625 8.5 -14.609375 6.65625 -13.328125 L 6.65625 -20.5 L 0.515625 -20.5 Z M 0.515625 0 "/></g></g></g><g fill="#000000" fill-opacity="1"><g transform="translate(169.22441, 196.719097)"><g><path d="M 6.84375 0.25 C 9.5 0.25 12.171875 -0.125 14.5625 -1.875 L 14.5625 0 L 20.703125 0 L 20.703125 -7.609375 C 20.65625 -13.484375 17.0625 -15.625 10.765625 -15.625 C 7.921875 -15.625 4.59375 -15.0625 1.515625 -14.0625 L 3.515625 -9.71875 C 6.328125 -10.328125 8.578125 -10.5 10.5625 -10.5 C 12.609375 -10.5 14.5625 -10.421875 14.5625 -8.578125 C 13.140625 -9.09375 11.5 -9.375 9.359375 -9.375 C 4.875 -9.375 0.25 -8.328125 0.25 -4.328125 C 0.25 -1 3.328125 0.25 6.84375 0.25 Z M 8.6875 -3.84375 C 7.125 -3.84375 6.40625 -3.96875 6.40625 -4.8125 C 6.40625 -5.796875 7.640625 -6.046875 10.484375 -6.046875 C 12.25 -6.046875 13.578125 -5.921875 14.5625 -5.65625 L 14.5625 -5.015625 C 13.015625 -4.359375 10.765625 -3.84375 8.6875 -3.84375 Z M 8.6875 -3.84375 "/></g></g></g><g fill="#000000" fill-opacity="1"><g transform="translate(190.435483, 196.719097)"><g><path d="M 10.484375 0.25 C 12.5 0.25 14.328125 0.125 15.78125 -0.125 L 15.78125 -5.125 C 14.015625 -4.875 13.25 -4.875 11.859375 -4.875 C 10.078125 -4.875 9.5 -5.609375 9.5 -7.078125 L 9.5 -10.25 L 15.78125 -10.25 L 15.78125 -15.375 L 9.5 -15.375 L 9.5 -19.46875 L 3.359375 -17.9375 L 3.359375 -15.375 L 0.25 -15.375 L 0.25 -10.25 L 3.359375 -10.25 L 3.359375 -4.53125 C 3.359375 -1.203125 5.71875 0.25 10.484375 0.25 Z M 10.484375 0.25 "/></g></g></g><g fill="#000000" fill-opacity="1"><g transform="translate(206.47187, 196.719097)"><g><path d="M 11.203125 0.25 C 17.015625 0.25 21.109375 -0.484375 21.109375 -5.171875 C 21.109375 -9.203125 17.25 -9.5625 11.203125 -9.859375 C 7.296875 -10.078125 6.65625 -10.046875 6.65625 -10.6875 C 6.65625 -11.28125 7.5625 -11.28125 10.6875 -11.28125 C 13.421875 -11.28125 14.453125 -11.28125 14.453125 -10.453125 L 20.609375 -10.453125 C 20.609375 -14.890625 16.625 -15.625 10.9375 -15.625 C 5.25 -15.625 0.515625 -14.890625 0.515625 -10.5 C 0.515625 -6.578125 3.609375 -6.046875 10.6875 -5.765625 C 14.375 -5.609375 14.96875 -5.6875 14.96875 -4.921875 C 14.96875 -4.25 14.375 -4.09375 10.9375 -4.09375 C 7.21875 -4.09375 6.40625 -4.4375 6.40625 -5.296875 L 0.25 -5.296875 C 0.25 -0.484375 5.375 0.25 11.203125 0.25 Z M 11.203125 0.25 "/></g></g></g><g fill="#000000" fill-opacity="1"><g transform="translate(227.83665, 196.719097)"><g><path d="M 0.515625 0 L 7.171875 0 L 7.171875 -10.578125 L 14.90625 0 L 23.625 0 L 23.625 -17.9375 L 16.96875 -17.9375 L 16.96875 -7.359375 L 9.21875 -17.9375 L 0.515625 -17.9375 Z M 0.515625 0 "/></g></g></g><g fill="#000000" fill-opacity="1"><g transform="translate(251.968095, 196.719097)"><g><path d="M 10.453125 0.25 C 16.78125 0.25 20.09375 -1.6875 20.859375 -5.765625 L 14.84375 -5.765625 C 13.578125 -4.765625 12.6875 -4.609375 10.453125 -4.609375 C 8.765625 -4.609375 7.046875 -5.015625 6.53125 -6.65625 L 21.109375 -6.65625 C 21.109375 -13.375 17.046875 -15.625 10.71875 -15.625 C 4.4375 -15.625 0.25 -13.375 0.25 -7.6875 C 0.25 -2 4.4375 0.25 10.453125 0.25 Z M 6.8125 -9.734375 C 7.515625 -11.125 9.046875 -11.28125 10.6875 -11.28125 C 12.328125 -11.28125 13.859375 -11.125 14.5625 -9.734375 Z M 6.8125 -9.734375 "/></g></g></g><g fill="#000000" fill-opacity="1"><g transform="translate(273.332874, 196.719097)"><g><path d="M 0.25 0 L 8.203125 0 L 11.6875 -4.484375 L 15.171875 0 L 23.109375 0 L 16.046875 -7.6875 L 23.109375 -15.375 L 15.171875 -15.375 L 11.6875 -10.890625 L 8.203125 -15.375 L 0.25 -15.375 L 7.328125 -7.6875 Z M 0.25 0 "/></g></g></g><g fill="#000000" fill-opacity="1"><g transform="translate(296.695803, 196.719097)"><g><path d="M 10.484375 0.25 C 12.5 0.25 14.328125 0.125 15.78125 -0.125 L 15.78125 -5.125 C 14.015625 -4.875 13.25 -4.875 11.859375 -4.875 C 10.078125 -4.875 9.5 -5.609375 9.5 -7.078125 L 9.5 -10.25 L 15.78125 -10.25 L 15.78125 -15.375 L 9.5 -15.375 L 9.5 -19.46875 L 3.359375 -17.9375 L 3.359375 -15.375 L 0.25 -15.375 L 0.25 -10.25 L 3.359375 -10.25 L 3.359375 -4.53125 C 3.359375 -1.203125 5.71875 0.25 10.484375 0.25 Z M 10.484375 0.25 "/></g></g></g><g fill="#0275d8" fill-opacity="1"><g transform="translate(109.280066, 207.365259)"><g><path d="M 0.21875 0 L 3.0625 0 L 3.0625 -4.515625 L 6.359375 0 L 10.078125 0 L 10.078125 -7.65625 L 7.234375 -7.65625 L 7.234375 -3.140625 L 3.9375 -7.65625 L 0.21875 -7.65625 Z M 0.21875 0 "/></g></g></g><g fill="#0275d8" fill-opacity="1"><g transform="translate(119.579496, 207.365259)"><g><path d="M 0.21875 0 L 8.3125 0 L 8.3125 -2.1875 L 3.0625 -2.1875 L 3.0625 -2.890625 L 8.3125 -2.890625 L 8.3125 -4.75 L 3.0625 -4.75 L 3.0625 -5.46875 L 8.3125 -5.46875 L 8.3125 -7.65625 L 0.21875 -7.65625 Z M 0.21875 0 "/></g></g></g><g fill="#0275d8" fill-opacity="1"><g transform="translate(127.998353, 207.365259)"><g><path d="M 0.109375 0 L 3.828125 0 L 5.75 -2.1875 L 7.671875 0 L 11.390625 0 L 7.78125 -3.828125 L 11.390625 -7.65625 L 7.671875 -7.65625 L 5.75 -5.46875 L 3.828125 -7.65625 L 0.109375 -7.65625 L 3.734375 -3.828125 Z M 0.109375 0 "/></g></g></g><g fill="#0275d8" fill-opacity="1"><g transform="translate(139.500477, 207.365259)"><g><path d="M 3.390625 0 L 6.234375 0 L 6.234375 -5.25 L 9.515625 -5.25 L 9.515625 -7.65625 L 0.109375 -7.65625 L 0.109375 -5.25 L 3.390625 -5.25 Z M 3.390625 0 "/></g></g></g></svg>